<mxfile host="app.diagrams.net" agent="Mozilla/5.0 (Windows NT 10.0; Win64; x64) AppleWebKit/537.36 (KHTML, like Gecko) Chrome/136.0.0.0 Safari/537.36" version="27.0.3">
  <diagram name="‫صفحه - 1‬" id="ZE83JCWvptQ--PR7GEOe">
    <mxGraphModel dx="1056" dy="581" grid="1" gridSize="10" guides="1" tooltips="1" connect="1" arrows="1" fold="1" page="1" pageScale="1" pageWidth="827" pageHeight="1169" math="0" shadow="0">
      <root>
        <mxCell id="0" />
        <mxCell id="1" parent="0" />
        <mxCell id="XFQT50zC6AlC2kEd5-D_-19" value="سبد خرید&amp;nbsp;" style="html=1;whiteSpace=wrap;" vertex="1" parent="1">
          <mxGeometry x="190" y="290" width="110" height="50" as="geometry" />
        </mxCell>
        <mxCell id="XFQT50zC6AlC2kEd5-D_-20" value="محصول&amp;nbsp;&lt;span style=&quot;color: rgba(0, 0, 0, 0); font-family: monospace; font-size: 0px; text-align: start; text-wrap-mode: nowrap;&quot;&gt;%3CmxGraphModel%3E%3Croot%3E%3CmxCell%20id%3D%220%22%2F%3E%3CmxCell%20id%3D%221%22%20parent%3D%220%22%2F%3E%3CmxCell%20id%3D%222%22%20value%3D%22%D8%B3%D8%A8%D8%AF%20%D8%AE%D8%B1%DB%8C%D8%AF%26amp%3Bnbsp%3B%22%20style%3D%22html%3D1%3BwhiteSpace%3Dwrap%3B%22%20vertex%3D%221%22%20parent%3D%221%22%3E%3CmxGeometry%20x%3D%22190%22%20y%3D%22290%22%20width%3D%22110%22%20height%3D%2250%22%20as%3D%22geometry%22%2F%3E%3C%2FmxCell%3E%3C%2Froot%3E%3C%2FmxGraphModel%3E&lt;/span&gt;" style="html=1;whiteSpace=wrap;" vertex="1" parent="1">
          <mxGeometry x="340" y="290" width="110" height="50" as="geometry" />
        </mxCell>
        <mxCell id="XFQT50zC6AlC2kEd5-D_-21" value="درگاه پرداخت&amp;nbsp;" style="html=1;whiteSpace=wrap;" vertex="1" parent="1">
          <mxGeometry x="480" y="290" width="110" height="50" as="geometry" />
        </mxCell>
        <mxCell id="XFQT50zC6AlC2kEd5-D_-23" value="سرویس ارسال&amp;nbsp;" style="html=1;whiteSpace=wrap;" vertex="1" parent="1">
          <mxGeometry x="640" y="290" width="110" height="50" as="geometry" />
        </mxCell>
        <mxCell id="XFQT50zC6AlC2kEd5-D_-24" value="سبد خرید&amp;nbsp;" style="html=1;whiteSpace=wrap;" vertex="1" parent="1">
          <mxGeometry x="190" y="490" width="110" height="50" as="geometry" />
        </mxCell>
        <mxCell id="XFQT50zC6AlC2kEd5-D_-25" value="محصول&amp;nbsp;&lt;span style=&quot;color: rgba(0, 0, 0, 0); font-family: monospace; font-size: 0px; text-align: start; text-wrap-mode: nowrap;&quot;&gt;%3CmxGraphModel%3E%3Croot%3E%3CmxCell%20id%3D%220%22%2F%3E%3CmxCell%20id%3D%221%22%20parent%3D%220%22%2F%3E%3CmxCell%20id%3D%222%22%20value%3D%22%D8%B3%D8%A8%D8%AF%20%D8%AE%D8%B1%DB%8C%D8%AF%26amp%3Bnbsp%3B%22%20style%3D%22html%3D1%3BwhiteSpace%3Dwrap%3B%22%20vertex%3D%221%22%20parent%3D%221%22%3E%3CmxGeometry%20x%3D%22190%22%20y%3D%22290%22%20width%3D%22110%22%20height%3D%2250%22%20as%3D%22geometry%22%2F%3E%3C%2FmxCell%3E%3C%2Froot%3E%3C%2FmxGraphModel%3E&lt;/span&gt;" style="html=1;whiteSpace=wrap;" vertex="1" parent="1">
          <mxGeometry x="340" y="490" width="110" height="50" as="geometry" />
        </mxCell>
        <mxCell id="XFQT50zC6AlC2kEd5-D_-26" value="درگاه پرداخت&amp;nbsp;" style="html=1;whiteSpace=wrap;" vertex="1" parent="1">
          <mxGeometry x="480" y="490" width="110" height="50" as="geometry" />
        </mxCell>
        <mxCell id="XFQT50zC6AlC2kEd5-D_-27" value="سرویس ارسال&amp;nbsp;" style="html=1;whiteSpace=wrap;" vertex="1" parent="1">
          <mxGeometry x="640" y="490" width="110" height="50" as="geometry" />
        </mxCell>
        <mxCell id="XFQT50zC6AlC2kEd5-D_-30" value="" style="shape=umlLifeline;perimeter=lifelinePerimeter;whiteSpace=wrap;html=1;container=1;dropTarget=0;collapsible=0;recursiveResize=0;outlineConnect=0;portConstraint=eastwest;newEdgeStyle={&quot;curved&quot;:0,&quot;rounded&quot;:0};participant=umlActor;" vertex="1" parent="1">
          <mxGeometry x="90" y="290" width="20" height="300" as="geometry" />
        </mxCell>
        <mxCell id="XFQT50zC6AlC2kEd5-D_-31" value="مشتری" style="text;html=1;align=center;verticalAlign=middle;whiteSpace=wrap;rounded=0;" vertex="1" parent="1">
          <mxGeometry x="50" y="330" width="60" height="30" as="geometry" />
        </mxCell>
        <mxCell id="XFQT50zC6AlC2kEd5-D_-32" value="Actor" style="shape=umlActor;verticalLabelPosition=bottom;verticalAlign=top;html=1;outlineConnect=0;" vertex="1" parent="1">
          <mxGeometry x="85" y="600" width="30" height="60" as="geometry" />
        </mxCell>
        <mxCell id="XFQT50zC6AlC2kEd5-D_-33" value="" style="endArrow=classic;html=1;rounded=0;" edge="1" parent="1">
          <mxGeometry width="50" height="50" relative="1" as="geometry">
            <mxPoint x="110" y="390" as="sourcePoint" />
            <mxPoint x="240" y="390" as="targetPoint" />
          </mxGeometry>
        </mxCell>
        <mxCell id="XFQT50zC6AlC2kEd5-D_-34" value="" style="endArrow=none;dashed=1;html=1;dashPattern=1 3;strokeWidth=2;rounded=0;exitX=0.478;exitY=-0.058;exitDx=0;exitDy=0;exitPerimeter=0;" edge="1" parent="1" source="XFQT50zC6AlC2kEd5-D_-24">
          <mxGeometry width="50" height="50" relative="1" as="geometry">
            <mxPoint x="244.77" y="420" as="sourcePoint" />
            <mxPoint x="244.77" y="340" as="targetPoint" />
          </mxGeometry>
        </mxCell>
        <mxCell id="XFQT50zC6AlC2kEd5-D_-35" value="افزودن محصول&amp;nbsp;" style="text;html=1;align=center;verticalAlign=middle;whiteSpace=wrap;rounded=0;" vertex="1" parent="1">
          <mxGeometry x="130" y="360" width="80" height="30" as="geometry" />
        </mxCell>
        <mxCell id="XFQT50zC6AlC2kEd5-D_-36" value="" style="endArrow=none;dashed=1;html=1;dashPattern=1 3;strokeWidth=2;rounded=0;exitX=0.478;exitY=-0.058;exitDx=0;exitDy=0;exitPerimeter=0;" edge="1" parent="1">
          <mxGeometry width="50" height="50" relative="1" as="geometry">
            <mxPoint x="394.12" y="487" as="sourcePoint" />
            <mxPoint x="395.89" y="340" as="targetPoint" />
          </mxGeometry>
        </mxCell>
        <mxCell id="XFQT50zC6AlC2kEd5-D_-37" value="" style="endArrow=classic;html=1;rounded=0;" edge="1" parent="1">
          <mxGeometry width="50" height="50" relative="1" as="geometry">
            <mxPoint x="250" y="410" as="sourcePoint" />
            <mxPoint x="380" y="410" as="targetPoint" />
          </mxGeometry>
        </mxCell>
        <mxCell id="XFQT50zC6AlC2kEd5-D_-38" value="دریافت قیمت&amp;nbsp;" style="text;html=1;align=center;verticalAlign=middle;whiteSpace=wrap;rounded=0;" vertex="1" parent="1">
          <mxGeometry x="290" y="380" width="60" height="30" as="geometry" />
        </mxCell>
        <mxCell id="XFQT50zC6AlC2kEd5-D_-39" value="" style="endArrow=none;dashed=1;html=1;dashPattern=1 3;strokeWidth=2;rounded=0;exitX=0.478;exitY=-0.058;exitDx=0;exitDy=0;exitPerimeter=0;" edge="1" parent="1">
          <mxGeometry width="50" height="50" relative="1" as="geometry">
            <mxPoint x="540" y="487" as="sourcePoint" />
            <mxPoint x="541.77" y="340" as="targetPoint" />
          </mxGeometry>
        </mxCell>
        <mxCell id="XFQT50zC6AlC2kEd5-D_-40" value="" style="endArrow=classic;html=1;rounded=0;" edge="1" parent="1">
          <mxGeometry width="50" height="50" relative="1" as="geometry">
            <mxPoint x="105" y="450" as="sourcePoint" />
            <mxPoint x="540" y="450" as="targetPoint" />
          </mxGeometry>
        </mxCell>
        <mxCell id="XFQT50zC6AlC2kEd5-D_-41" value="در گاه پرداخت&amp;nbsp;" style="text;html=1;align=center;verticalAlign=middle;whiteSpace=wrap;rounded=0;" vertex="1" parent="1">
          <mxGeometry x="140" y="420" width="90" height="30" as="geometry" />
        </mxCell>
        <mxCell id="XFQT50zC6AlC2kEd5-D_-42" value="" style="endArrow=classic;html=1;rounded=0;" edge="1" parent="1">
          <mxGeometry width="50" height="50" relative="1" as="geometry">
            <mxPoint x="550" y="470" as="sourcePoint" />
            <mxPoint x="680" y="470" as="targetPoint" />
          </mxGeometry>
        </mxCell>
        <mxCell id="XFQT50zC6AlC2kEd5-D_-43" value="" style="endArrow=none;dashed=1;html=1;dashPattern=1 3;strokeWidth=2;rounded=0;exitX=0.478;exitY=-0.058;exitDx=0;exitDy=0;exitPerimeter=0;" edge="1" parent="1">
          <mxGeometry width="50" height="50" relative="1" as="geometry">
            <mxPoint x="694.11" y="490" as="sourcePoint" />
            <mxPoint x="695.88" y="343" as="targetPoint" />
          </mxGeometry>
        </mxCell>
        <mxCell id="XFQT50zC6AlC2kEd5-D_-44" value="ارسال سفارش&amp;nbsp;" style="text;html=1;align=center;verticalAlign=middle;whiteSpace=wrap;rounded=0;" vertex="1" parent="1">
          <mxGeometry x="590" y="440" width="70" height="30" as="geometry" />
        </mxCell>
      </root>
    </mxGraphModel>
  </diagram>
</mxfile>
